# xmcd
#
# Track frame offsets: 
#        150
#        10412
#        23011
#        34490
#        45721
#        58428
#        70491
#        81594
#        94417
#        104777
#        118120
#        129455
#        141490
#        153546
#        164429
#        174772
#        186046
#        196228
#        205472
#        215446
#
# Disc length: 3021 seconds
#
# Revision: 0
# Processed by: cddbd v1.5.2PL0 Copyright (c) Steve Scherf et al.
# Submitted via: ExactAudioCopy v1.3
#
DISCID=390bcb14
DTITLE=Chet Atkins - The Absolutely Essential
DYEAR=2017
DGENRE=Country
TTITLE0=Mister Sandman
TTITLE1=Guitar Blues (Pickin The Blues)
TTITLE2=Canned Heat
TTITLE3=The Nashville Jump
TTITLE4=Barnyard Shuffle
TTITLE5=Dizzy Strings
TTITLE6=Gallopin Guitar
TTITLE7=Boogie Man Boogie
TTITLE8=Main Street Breakdown
TTITLE9=Indian Love Call
TTITLE10=The Birth Of The Blues
TTITLE11=Rainbow
TTITLE12=Spanish Fandango
TTITLE13=Theme From The Third Man
TTITLE14=Black Mountain Rag
TTITLE15=Pig Leaf Rag
TTITLE16=Country Gentleman
TTITLE17=Kentucky Derby
TTITLE18=Wildwood Flower
TTITLE19=San Antonio Rose
EXTD=
EXTT0=
EXTT1=
EXTT2=
EXTT3=
EXTT4=
EXTT5=
EXTT6=
EXTT7=
EXTT8=
EXTT9=
EXTT10=
EXTT11=
EXTT12=
EXTT13=
EXTT14=
EXTT15=
EXTT16=
EXTT17=
EXTT18=
EXTT19=
PLAYORDER=
